<svg width="275" height="74" viewBox="0 0 275 74" fill="none" xmlns="http://www.w3.org/2000/svg">
<path d="M71.8412 36.9948C72.575 36.9984 73.3006 37.1484 73.9747 37.436C74.645 37.71 75.2545 38.1117 75.7689 38.6186C76.2691 39.1213 76.6808 39.7037 76.987 40.3416C77.2999 40.9846 77.4618 41.6898 77.4605 42.4039C77.4862 43.166 77.3484 43.9247 77.0563 44.63C76.7643 45.3352 76.3245 45.9708 75.7663 46.4947C75.2489 47.0028 74.6358 47.4047 73.9618 47.6775C73.2879 47.9502 72.5664 48.0886 71.8385 48.0846H63.7831L52.947 66.3588C52.6098 66.9848 52.1429 67.5329 51.5771 67.9671C51.0112 68.4013 50.3591 68.7117 49.6638 68.878C48.9693 69.0692 48.2427 69.1173 47.5288 69.0194C46.8148 68.9216 46.1286 68.6797 45.5124 68.3089C44.8639 67.933 44.2991 67.4303 43.8524 66.8313C43.4301 66.2625 43.1097 65.6258 42.9053 64.9491C42.6999 64.2728 42.6416 63.5609 42.7343 62.8606C42.8293 62.1289 43.0594 61.421 43.413 60.7721L50.7739 48.0846H41.1637C40.0834 49.0697 39.0451 50.0547 38.0489 51.0398C37.0527 52.0249 36.0372 52.9655 35.0024 53.8618C32.519 56.147 30.0583 58.3225 27.6205 60.3883C25.1826 62.4542 22.8018 64.3103 20.4779 65.9567C18.3047 67.5199 16.0342 68.9455 13.68 70.2251C11.6667 71.3306 9.53004 72.1989 7.31355 72.8122C6.60323 73.0354 5.85051 73.0925 5.11423 72.9792C4.38956 72.8782 3.6881 72.653 3.04118 72.3135C2.41224 71.9805 1.85888 71.5229 1.41536 70.9691C0.95358 70.3926 0.64754 69.7089 0.526158 68.9824C0.303421 68.2765 0.234373 67.5317 0.323589 66.7974C0.40348 66.0902 0.622466 65.4054 0.968128 64.782C1.31827 64.1642 1.79505 63.6262 2.3677 63.2026C2.96929 62.749 3.66181 62.4285 4.39866 62.2627C5.95519 61.7727 7.45448 61.1189 8.87097 60.3126C10.6334 59.3308 12.3407 58.2545 13.9852 57.0885C15.7654 55.8355 17.6157 54.4127 19.5361 52.8202C21.4566 51.2277 23.4069 49.5361 25.387 47.7452C24.2897 47.4077 23.3366 46.7181 22.6773 45.7847C21.9865 44.7929 21.6309 43.6091 21.6618 42.4039C21.6592 41.6964 21.802 40.9958 22.0816 40.345C22.3611 39.6941 22.7715 39.1067 23.2876 38.6186C23.806 38.0906 24.4282 37.674 25.1157 37.3946C25.8031 37.1153 26.5411 36.9792 27.2838 36.9948H36.3573C39.0196 34.2641 41.5627 31.61 43.9865 29.0324C46.4104 26.4549 48.814 23.9235 51.1975 21.4382C53.588 18.9529 56.0592 16.4894 58.611 14.0476C61.1629 11.6058 63.9287 9.13099 66.9085 6.62308C68.1531 5.55879 69.6045 4.75914 71.173 4.27354C72.6702 3.79227 74.2409 3.57578 75.8136 3.63394C77.2667 3.68706 78.6959 4.01768 80.0229 4.6077C81.2437 5.13784 82.2881 6.00047 83.0351 7.0956C83.7559 8.17116 84.0944 9.49213 84.0506 11.0585C84.0067 12.6248 83.4131 14.4209 82.2696 16.4468L70.2154 36.9948H71.8412ZM66.627 21.0023C64.0541 23.4214 61.5487 26.0198 59.1109 28.7975C56.673 31.5752 54.2352 34.3076 51.7973 36.9948H57.2141L66.627 21.0023Z" fill="#F05052"/>
<path d="M100.869 35.6033C101.456 34.7314 102.09 34.238 102.769 34.1309C103.376 34.0082 104.009 34.1252 104.531 34.4573C105.032 34.7939 105.379 35.314 105.494 35.9035C105.562 36.2395 105.558 36.5859 105.482 36.9202C105.405 37.2544 105.259 37.569 105.052 37.8432C104.428 38.7534 103.777 39.6907 103.1 40.6548C102.423 41.619 101.707 42.5658 100.953 43.4952C100.212 44.4072 99.4218 45.2787 98.5856 46.1058C97.7742 46.9152 96.8802 47.6387 95.918 48.2647C93.4942 49.7928 91.2379 50.5116 89.149 50.4211C87.0602 50.3306 85.3265 49.6344 83.948 48.3326C82.5712 47.0412 81.6724 45.2573 81.2514 42.9809C80.8305 40.7044 81.0778 38.1652 81.9933 35.3632C82.3248 34.4146 82.7834 33.3043 83.3692 32.032C83.955 30.7598 84.625 29.4032 85.3791 27.9621C86.1315 26.5245 86.9383 25.0321 87.7994 23.4849C88.6606 21.9377 89.5138 20.4358 90.3592 18.979C92.3814 15.5731 94.5456 11.9948 96.8519 8.24426C97.3393 7.52126 98.0419 6.96728 98.8618 6.65963C99.5859 6.40788 100.362 6.34232 101.119 6.46905C101.866 6.59593 102.573 6.89553 103.182 7.3436C103.791 7.78222 104.283 8.36324 104.613 9.03527C104.944 9.7166 105.095 10.4703 105.052 11.2256C104.984 12.0916 104.659 12.9182 104.118 13.6012C102.208 16.767 100.429 19.7526 98.7803 22.5582C98.0787 23.759 97.3719 24.9695 96.6599 26.1895C95.9478 27.4095 95.2691 28.5747 94.6237 29.6851C93.9818 30.7955 93.4039 31.8145 92.89 32.7421C92.3761 33.6697 91.9727 34.4251 91.6798 35.0081C90.6503 37.0827 90.0172 38.7578 89.7804 40.0335C89.5436 41.3092 89.5989 42.236 89.9461 42.8138C90.2934 43.396 90.8643 43.6414 91.6535 43.55C92.4428 43.4586 93.3398 43.0853 94.3501 42.43C95.528 41.6362 96.6179 40.7208 97.6017 39.6994C98.8263 38.4461 99.921 37.0738 100.869 35.6033Z" fill="#F05052"/>
<path d="M140.604 35.6033C141.191 34.7314 141.833 34.238 142.53 34.131C143.137 34.0043 143.77 34.1217 144.29 34.4573C144.781 34.8038 145.124 35.3194 145.253 35.9035C145.331 36.2372 145.334 36.5837 145.263 36.9187C145.191 37.2538 145.047 37.5693 144.84 37.8432C144.217 38.7534 143.567 39.6907 142.888 40.6548C142.209 41.619 141.495 42.5658 140.746 43.4952C140.002 44.4119 139.202 45.2837 138.352 46.1058C137.526 46.9107 136.623 47.6338 135.656 48.2647C134.357 49.1369 132.914 49.7741 131.391 50.147C130.148 50.453 128.855 50.4992 127.593 50.2827C126.456 50.0736 125.383 49.6073 124.457 48.92C123.513 48.2194 122.734 47.3243 122.173 46.2963C120.382 47.566 118.418 48.5777 116.341 49.3011C113.808 50.2131 111.396 50.5499 109.103 50.3114C106.811 50.073 104.876 49.3446 103.297 48.1264C101.719 46.9081 100.609 45.2338 99.9668 43.1036C99.3249 40.9733 99.3705 38.488 100.104 35.6477C100.647 33.537 101.451 31.501 102.498 29.5859C103.57 27.5994 104.903 25.7629 106.462 24.1245C108.004 22.499 109.796 21.1262 111.771 20.0572C113.744 18.9862 115.917 18.3262 118.156 18.1175C119.296 18.0062 120.446 18.043 121.576 18.2272C122.536 18.3965 123.474 18.675 124.37 19.0574C125.178 19.4006 125.937 19.8502 126.624 20.394C127.259 20.8995 127.848 21.4576 128.387 22.0622C129.376 20.3218 130.366 18.6101 131.357 16.9271C132.348 15.2441 133.225 13.77 133.988 12.5048C134.907 11.0115 135.784 9.59133 136.619 8.24426C137.108 7.51792 137.816 6.96337 138.642 6.65963C139.356 6.40873 140.123 6.34313 140.87 6.46906C141.611 6.60491 142.311 6.90665 142.917 7.35133C143.523 7.79601 144.018 8.37192 144.366 9.03528C144.717 9.71073 144.881 10.4667 144.84 11.2256C144.772 12.0916 144.447 12.9182 143.906 13.6012C141.996 16.767 140.217 19.7526 138.568 22.5582C137.867 23.759 137.151 24.9695 136.421 26.1895C135.692 27.4095 135.003 28.5747 134.356 29.6851C133.714 30.7955 133.136 31.8145 132.623 32.7421C132.109 33.6697 131.705 34.4251 131.412 35.0081C130.386 37.0827 129.763 38.7578 129.542 40.0335C129.321 41.3092 129.373 42.236 129.697 42.8138C130.027 43.3951 130.586 43.6405 131.376 43.55C132.165 43.4595 133.072 43.0862 134.098 42.43C135.282 41.6459 136.371 40.7297 137.345 39.6994C138.562 38.4413 139.653 37.0696 140.604 35.6033ZM116.664 39.6994C118.395 38.8039 119.879 37.5005 120.984 35.9035C121.992 34.3946 122.598 32.9571 122.799 31.5908C123.001 30.2246 122.781 29.0777 122.139 28.1501C121.497 27.2207 120.445 26.8108 118.982 26.9205C117.858 27.0526 116.779 27.4355 115.825 28.0404C114.759 28.6913 113.785 29.4815 112.931 30.39C112.044 31.3242 111.26 32.3489 110.59 33.447C109.958 34.4606 109.441 35.5411 109.051 36.6685C108.723 37.5598 108.573 38.5058 108.609 39.454C108.663 40.2737 108.975 40.8741 109.545 41.2553C110.115 41.6364 110.977 41.7278 112.131 41.5294C113.284 41.331 114.795 40.721 116.664 39.6994Z" fill="#F05052"/>
<path d="M181.052 24.3543C182.115 23.7712 183.06 23.6712 183.886 24.054C184.69 24.4132 185.322 25.0685 185.648 25.8815C185.998 26.7606 186.046 27.7293 185.785 28.6383C185.527 29.6407 184.867 30.4326 183.804 31.0139C182.915 31.5128 181.962 31.8895 180.971 32.1338C180.023 32.3675 179.053 32.5048 178.077 32.5437C177.141 32.5809 176.203 32.5443 175.273 32.4341C174.417 32.3361 173.57 32.172 172.739 31.9433C172.545 34.2005 171.909 36.3986 170.869 38.4149C169.816 40.4912 168.452 42.3969 166.823 44.0669C165.192 45.7403 163.308 47.1497 161.237 48.2438C159.225 49.3307 157.021 50.0254 154.745 50.2905C152.634 50.5623 150.489 50.357 148.47 49.6901C146.627 49.075 144.951 48.0478 143.572 46.6879C142.194 45.3139 141.14 43.655 140.483 41.8296C139.771 39.8341 139.471 37.7164 139.602 35.6033C139.659 34.6811 139.806 33.7665 140.041 32.8726C140.593 30.5074 141.623 28.278 143.069 26.32C144.503 24.3523 146.24 22.6203 148.215 21.1876C150.143 19.7843 152.29 18.7048 154.571 17.9922C156.72 17.2971 158.988 17.0379 161.24 17.2299C163.393 17.4274 165.458 18.1699 167.238 19.3863C169.071 20.6272 170.539 22.4842 171.642 24.9573C172.228 25.067 172.925 25.1766 173.734 25.2862C174.554 25.396 175.381 25.4501 176.209 25.4481C177.059 25.448 177.906 25.3658 178.74 25.2027C179.554 25.0514 180.335 24.7646 181.052 24.3543ZM163.718 31.5621C163.825 29.8879 163.495 28.6322 162.726 27.795C161.971 26.9655 160.948 26.4243 159.833 26.2652C158.585 26.0962 157.314 26.2205 156.123 26.6281C154.852 27.0201 153.673 27.661 152.656 28.5129C151.723 29.2511 150.915 30.1324 150.262 31.1235C149.616 32.1078 149.155 33.2002 148.902 34.3476C148.827 34.54 148.78 34.7423 148.765 34.9481C148.747 35.1674 148.718 35.3866 148.683 35.6033C148.61 37.0966 148.894 38.2618 149.536 39.0989C150.154 39.922 151.038 40.5099 152.04 40.7645C153.141 41.0388 154.292 41.0486 155.397 40.7932C156.599 40.5412 157.739 40.0588 158.754 39.373C159.939 38.6033 160.969 37.6215 161.793 36.4779C162.596 35.3999 163.177 34.1745 163.5 32.8726C163.572 32.6605 163.618 32.4405 163.637 32.2174C163.653 32.0007 163.681 31.7814 163.718 31.5621Z" fill="#F05052"/>
<path d="M183.804 20.1016C184.182 19.5976 184.45 19.0217 184.593 18.4099C184.759 17.7547 184.904 17.1046 185.033 16.4154C185.162 15.7262 185.317 15.0788 185.501 14.4236C185.659 13.8152 185.961 13.2531 186.382 12.7841C186.793 12.3069 187.346 11.9722 187.961 11.8286C188.59 11.6658 189.249 11.6471 189.887 11.7738C190.524 11.8998 191.12 12.1816 191.62 12.5935C192.127 13.0015 192.478 13.5703 192.612 14.2043C192.784 15.2483 192.68 16.3187 192.31 17.3109C191.97 18.3515 191.459 19.329 190.797 20.2034C190.055 21.1624 189.168 22.0009 188.166 22.6887C187.177 23.3622 186.205 23.6442 185.251 23.5345C184.853 23.5006 184.468 23.3794 184.123 23.1795C183.797 23.0038 183.529 22.7381 183.352 22.4146C183.183 22.0873 183.125 21.7147 183.186 21.3521C183.271 20.8864 183.485 20.4534 183.804 20.1016Z" fill="#F05052"/>
<path d="M221.68 34.1179C221.725 34.386 221.839 34.6381 222.01 34.8508C222.18 35.0635 222.403 35.2299 222.656 35.3345C223.505 35.6712 224.352 35.0734 224.352 35.0734C224.063 36.1324 223.581 37.1302 222.932 38.0181C221.951 39.4053 220.795 40.6624 219.493 41.7591C217.955 43.0775 216.306 44.2643 214.566 45.3069C212.688 46.4408 210.729 47.4364 208.705 48.2856C206.67 49.1452 204.555 49.8036 202.391 50.2514C200.329 50.682 198.222 50.8651 196.116 50.797C194.14 50.744 192.195 50.3003 190.394 49.4917C189.56 49.0917 188.759 48.6255 188 48.0977C187.223 47.5818 186.551 46.9246 186.019 46.1606C185.534 45.4621 185.274 44.6335 185.275 43.785C185.275 42.9287 185.679 42.0272 186.488 41.0804C186.965 40.5356 187.469 39.9717 188 39.3887C188.532 38.8057 189.091 38.1774 189.679 37.5039C190.266 36.8303 190.899 36.0567 191.576 35.183C192.253 34.3094 193.023 33.2851 193.888 32.1104C193.234 30.9837 192.856 29.72 192.786 28.4216C192.742 27.2808 192.948 26.1442 193.391 25.0905C193.854 24.0193 194.517 23.0449 195.345 22.2188C196.242 21.3218 197.272 20.5664 198.4 19.9789C199.572 19.31 200.818 18.7791 202.114 18.3969C203.441 17.9999 204.793 17.6895 206.161 17.4675C207.463 17.2563 208.776 17.1107 210.094 17.0316C211.36 16.9585 212.488 16.9219 213.479 16.9219C214.078 16.932 214.669 17.0605 215.216 17.2999C215.764 17.5392 216.259 17.8847 216.67 18.316C217.099 18.7388 217.434 19.2465 217.652 19.8061C217.87 20.3656 217.966 20.9644 217.936 21.5635C217.935 22.1405 217.808 22.7103 217.565 23.2343C217.325 23.7636 216.99 24.2449 216.576 24.6545C216.161 25.0693 215.663 25.3946 215.116 25.61C214.538 25.8345 213.921 25.9462 213.3 25.9389C212.895 25.9389 212.227 25.9389 211.291 25.965C210.354 25.9911 209.365 26.0381 208.32 26.1295C207.276 26.2209 206.284 26.3488 205.348 26.5106C204.613 26.6066 203.904 26.8386 203.256 27.1946C202.798 27.487 202.698 27.8507 202.954 28.2858C203.21 28.7209 204.017 29.2491 205.377 29.8705C206.624 30.4901 207.779 31.127 208.844 31.7814C209.843 32.3793 210.72 33.1576 211.43 34.0761C212.105 34.9838 212.54 36.0446 212.695 37.1619C212.88 38.3436 212.733 39.7907 212.256 41.5033C219.917 39.3287 221.68 34.1179 221.68 34.1179ZM195.14 41.5085C196.396 41.838 197.706 41.9117 198.992 41.7252C200.149 41.6066 201.274 41.2718 202.306 40.7384C203.15 40.265 203.545 39.6915 203.49 39.018C203.436 38.3445 202.601 37.6614 200.986 36.9687L198.784 36.0419L195.14 41.5085Z" fill="#F05052"/>
<path d="M128.471 63.0746C128.537 63.2417 128.6 63.4062 128.663 63.5759C128.726 63.4018 128.792 63.2348 128.861 63.0746C128.932 62.9154 129.011 62.7561 129.097 62.5943L133.664 54.3631C133.719 54.2484 133.812 54.1561 133.927 54.102C134.05 54.0672 134.178 54.0522 134.306 54.0576H135.653V67.4448H134.051V57.6054C134.051 57.4749 134.051 57.3444 134.051 57.1851C134.051 57.0259 134.067 56.8823 134.077 56.7257L129.455 65.0979C129.397 65.2231 129.304 65.3292 129.187 65.4037C129.07 65.4782 128.934 65.5179 128.795 65.5182H128.532C128.393 65.5177 128.257 65.4779 128.141 65.4034C128.024 65.3289 127.932 65.2229 127.874 65.0979L123.139 56.6969C123.157 56.8588 123.17 57.0181 123.181 57.1747C123.191 57.3313 123.194 57.4749 123.194 57.6054V67.4422H121.594V54.055H122.941C123.068 54.0496 123.195 54.0646 123.318 54.0994C123.433 54.1536 123.526 54.2459 123.581 54.3605L128.24 62.5995C128.329 62.7518 128.406 62.9106 128.471 63.0746Z" fill="#4D70B6"/>
<path d="M161.327 67.4422H159.917C159.774 67.4493 159.634 67.4068 159.52 67.3221C159.418 67.2407 159.341 67.1345 159.293 67.0141L158.033 63.7795H151.982L150.717 67.0141C150.668 67.1308 150.591 67.2333 150.491 67.3117C150.379 67.4007 150.239 67.447 150.096 67.4422H148.683L154.079 54.0551H155.934L161.327 67.4422ZM152.488 62.4821H157.525L155.405 57.0364C155.243 56.6242 155.108 56.2022 155 55.7728C154.932 56.0339 154.863 56.2636 154.797 56.4803C154.732 56.697 154.668 56.8823 154.605 57.0442L152.488 62.4821Z" fill="#4D70B6"/>
<path d="M176.338 61.8555V67.4422H174.52V54.055H178.332C179.078 54.0428 179.822 54.1306 180.545 54.3161C181.104 54.4574 181.629 54.7105 182.086 55.0601C182.481 55.3687 182.79 55.7721 182.983 56.2323C183.35 57.1509 183.374 58.1691 183.052 59.1039C182.903 59.5091 182.681 59.8841 182.397 60.2108C182.097 60.5471 181.741 60.8297 181.344 61.0462C180.905 61.2851 180.434 61.4608 179.945 61.5683C180.185 61.7117 180.391 61.9061 180.547 62.1374L184.494 67.4526H182.876C182.729 67.4633 182.583 67.4333 182.453 67.366C182.323 67.2987 182.214 67.1967 182.139 67.0715L178.63 62.2758C178.54 62.1431 178.42 62.0331 178.28 61.9547C178.102 61.8787 177.91 61.8447 177.717 61.8555H176.338ZM176.338 60.5371H178.248C178.724 60.5456 179.199 60.4813 179.656 60.3466C180.029 60.2363 180.375 60.0515 180.674 59.8036C180.942 59.5773 181.153 59.291 181.289 58.9682C181.431 58.6283 181.502 58.2632 181.497 57.8952C181.497 57.0964 181.234 56.4951 180.708 56.0913C180.182 55.6875 179.392 55.4848 178.34 55.483H176.346L176.338 60.5371Z" fill="#4D70B6"/>
<path d="M206.458 54.0551V55.577H202.099V67.4422H200.273V55.577H195.895V54.0551H206.458Z" fill="#4D70B6"/>
<path d="M273.024 47.0952C271.48 45.3591 270.015 43.5448 268.376 41.9027C262.683 36.2064 256.921 30.5779 251.215 24.8973C250.868 24.5159 250.439 24.2177 249.959 24.0251C249.479 23.8324 248.961 23.7504 248.445 23.7852C246.785 23.8635 245.122 23.806 243.447 23.8269C243.031 23.8269 242.618 23.9052 242.268 23.9418C242.086 25.5447 241.897 27.0484 241.76 28.5547C241.77 28.8727 241.853 29.1844 242.002 29.4658C242.807 31.4133 242.168 33.5148 240.424 34.5643C239.597 35.0584 238.619 35.2407 237.668 35.0777C236.718 34.9147 235.858 34.4173 235.246 33.6767C233.931 32.0947 234.005 29.954 235.509 28.385C236.585 27.2572 236.151 25.8292 236.599 24.2081C235.12 24.5005 233.849 24.6649 232.652 25.0382C232.3 25.1479 231.976 25.8371 231.918 26.2965C231.563 29.0168 231.219 31.7449 231.008 34.4808C230.835 36.7677 230.79 39.0702 230.811 41.3623C230.823 42.0613 231.081 42.734 231.542 43.2628C238.524 50.2731 245.542 57.2591 252.594 64.2207C253.257 64.876 253.959 65.6304 255.017 65.4633C255.722 65.3537 256.529 65.1762 257.048 64.7428C258.492 63.5393 259.834 62.2079 261.175 60.887C264.459 57.6498 267.752 54.4101 270.972 51.1233C271.762 50.3402 272.346 49.3507 273.024 48.4553V47.0952Z" fill="#F05052"/>
<path d="M239.416 31.8989L240.589 26.4166C240.966 24.6623 241.46 22.8271 241.276 21.0205C241.198 20.0908 240.942 19.1843 240.521 18.3499C240.093 17.568 239.485 16.8979 238.745 16.3945C237.487 15.5708 236.038 15.0777 234.535 14.9612C233.031 14.8448 231.523 15.1089 230.151 15.7288C229.04 16.2327 227.907 17.1099 227.323 18.1959C226.834 19.1804 226.433 20.2049 226.123 21.2581C225.812 22.2005 225.526 23.1508 225.226 24.0984C224.231 27.2129 223.121 30.2986 222.037 33.3869C221.991 33.5522 221.979 33.7248 222 33.8949C222.021 34.065 222.076 34.2293 222.161 34.3784C222.247 34.5275 222.361 34.6584 222.497 34.7638C222.633 34.8692 222.789 34.9469 222.955 34.9924C223.291 35.0762 223.647 35.0283 223.948 34.8586C224.25 34.6889 224.473 34.4105 224.573 34.0814C225.534 31.3272 226.473 28.5652 227.42 25.8058C228.051 23.9783 228.554 22.0778 229.261 20.2582L229.388 19.9397C229.422 19.8562 229.496 19.7257 229.332 20.0703C229.353 20.0259 229.372 19.9763 229.393 19.9293C229.469 19.7596 229.548 19.5925 229.64 19.4307C229.674 19.3732 229.724 19.3132 229.751 19.2558C229.801 19.1409 229.648 19.3863 229.643 19.3889C229.707 19.3256 229.765 19.2565 229.816 19.1827C230.013 18.9585 230.227 18.7499 230.456 18.5587C230.685 18.3682 230.277 18.6788 230.437 18.5744C230.498 18.5326 230.558 18.4882 230.619 18.4491C230.743 18.3656 230.882 18.2898 230.998 18.2167C231.113 18.1436 231.234 18.0888 231.355 18.0314C231.418 17.9901 231.486 17.9584 231.558 17.9374C231.395 18.0053 231.361 18.021 231.45 17.9844L231.576 17.9348C231.859 17.8293 232.148 17.7421 232.442 17.6737C232.589 17.6398 232.739 17.6111 232.889 17.5876C232.947 17.5876 233.01 17.5719 233.068 17.5589C232.716 17.6372 232.989 17.5589 233.068 17.5589C233.373 17.5302 233.68 17.5197 233.986 17.5275C234.141 17.5275 234.294 17.5275 234.447 17.551L234.631 17.5693C234.925 17.5954 234.368 17.5249 234.647 17.5693C234.95 17.6182 235.25 17.6826 235.546 17.7625C235.694 17.8017 235.838 17.846 235.983 17.8956L236.157 17.9583C236.293 18.0079 236.386 18.0392 236.193 17.9583C236.525 18.0889 236.841 18.2534 237.138 18.4491C237.214 18.4935 237.283 18.5509 237.359 18.5953C237.535 18.6997 237.133 18.3969 237.388 18.6136C237.541 18.7433 237.686 18.8819 237.822 19.0286C237.88 19.0913 237.938 19.1592 237.993 19.227C237.825 19.0208 237.946 19.1644 237.975 19.214C238.064 19.3628 238.161 19.5064 238.238 19.6604C238.28 19.7387 238.314 19.817 238.353 19.8954C238.443 20.0807 238.253 19.603 238.353 19.9215C238.414 20.1068 238.474 20.287 238.522 20.4749C238.589 20.6576 238.627 20.8496 238.635 21.044C238.666 20.783 238.635 20.9605 238.635 21.0649C238.635 21.1693 238.653 21.3103 238.659 21.433C238.674 21.8888 238.656 22.3452 238.603 22.7983C238.603 22.7775 238.553 23.1873 238.58 23.002C238.58 22.9106 238.58 22.9367 238.566 23.0777C238.566 23.1612 238.54 23.2448 238.524 23.3387C238.49 23.5476 238.451 23.7538 238.409 23.9627C238.314 24.4456 238.209 24.926 238.106 25.4063L236.864 31.2149C236.722 31.8806 237.062 32.6586 237.782 32.8204C238.443 32.9692 239.248 32.6246 239.4 31.9093L239.416 31.8989Z" fill="#F05052"/>
</svg>
