<svg width="304" height="254" viewBox="0 0 304 254" fill="none" xmlns="http://www.w3.org/2000/svg">
<g clip-path="url(#clip0_4_1547)">
<path d="M125.263 59.7808H123.894V21.9036C123.894 9.80351 114.103 0 102.018 0H21.9099C9.79099 0 0 9.80351 0 21.9036V229.628C0 241.728 9.79099 251.532 21.8757 251.532H101.984C114.068 251.532 123.859 241.728 123.859 229.628V86.7233H125.229V59.7808H125.263Z" fill="#E6E6E6"/>
<path d="M102.874 5.69012H92.4324C94.0415 9.66637 92.1586 14.1911 88.1874 15.8364C87.2631 16.2135 86.2703 16.4191 85.2433 16.4191H39.3351C35.0559 16.4191 31.564 12.9228 31.564 8.63803C31.564 7.64397 31.7694 6.64991 32.146 5.69012H22.3892C13.3514 5.69012 6.02524 13.0256 6.02524 22.075V229.491C6.02524 238.541 13.3514 245.842 22.355 245.842H102.84C111.877 245.842 119.169 238.506 119.169 229.491V22.075C119.238 13.0256 111.912 5.69012 102.874 5.69012Z" fill="white"/>
<path d="M38.9243 47.8521H34.1315C33.7892 47.8521 33.4811 48.1263 33.4811 48.5034V50.6286C33.4811 50.9714 33.755 51.2799 34.1315 51.2799H34.9189V54.4335H38.1369V51.2799H38.9243C39.2667 51.2799 39.5748 51.0057 39.5748 50.6286V48.5034C39.5405 48.1606 39.2667 47.8521 38.9243 47.8521Z" fill="#E6E6E6"/>
<path d="M43.7171 67.1849C40.773 62.8659 39.2667 57.7242 39.4036 52.5139C39.4036 52.2739 39.2324 52.034 38.9928 51.9997V51.0742H33.9604V51.9654H33.8919C33.618 51.9654 33.3784 52.2054 33.3784 52.4796V52.5139C33.7892 58.1012 32.4198 63.1058 29.3388 67.5277C29.1676 67.7676 29.0649 68.0761 29.0649 68.3846L29.6126 85.5922C29.6469 86.3806 30.2973 87.0318 31.0847 87.0318H42.5532C43.3748 87.0318 44.0252 86.3806 44.0252 85.5579L44.2306 68.8645C44.2649 68.3161 44.0595 67.699 43.7171 67.1849Z" fill="#E6E6E6"/>
<path d="M41.9027 72.9093H31.9063C31.3243 72.9093 30.8793 73.3549 30.8793 73.9376C30.8793 74.0062 30.8793 74.0405 30.8793 74.109L32.3856 83.9468H41.0811L42.9297 74.1433C43.0324 73.5949 42.6559 73.0464 42.1081 72.9436C42.0396 72.9093 41.9712 72.9093 41.9027 72.9093Z" fill="white"/>
<path d="M92.4324 99.3719H87.6396C87.2973 99.3719 86.9892 99.6462 86.9892 100.023V102.148C86.9892 102.491 87.2631 102.8 87.6396 102.8H88.427V105.953H91.6451V102.8H92.4324C92.7748 102.8 93.0829 102.526 93.0829 102.148V100.023C93.0487 99.6462 92.7748 99.3719 92.4324 99.3719Z" fill="#E6E6E6"/>
<path d="M97.2252 118.705C94.2811 114.386 92.7748 109.244 92.9117 104.034C92.9117 103.794 92.7405 103.554 92.5009 103.52V102.594H87.4342V103.485H87.3658C87.0919 103.485 86.8523 103.725 86.8523 103.999V104.034C87.2631 109.621 85.8937 114.626 82.8126 119.047C82.6414 119.287 82.5387 119.596 82.5387 119.904L83.0865 137.112C83.1207 137.9 83.7712 138.552 84.5586 138.552H96.027C96.8486 138.552 97.4991 137.9 97.4991 137.078L97.7045 120.384C97.7387 119.802 97.5676 119.185 97.2252 118.705Z" fill="#E6E6E6"/>
<path d="M95.4108 124.395H85.4144C84.8324 124.395 84.3874 124.841 84.3874 125.423C84.3874 125.492 84.3874 125.526 84.3874 125.595L85.8937 135.432H94.555L96.4036 125.629C96.5063 125.08 96.1297 124.532 95.582 124.429C95.5478 124.395 95.4793 124.395 95.4108 124.395Z" fill="white"/>
<path d="M32.146 172.178H29.8523C29.6811 172.178 29.5442 172.316 29.5442 172.487V173.481C29.5442 173.652 29.6811 173.789 29.8523 173.789H30.2288V175.298H31.7694V173.789H32.146C32.3171 173.789 32.4541 173.652 32.4541 173.481V172.487C32.4541 172.316 32.3171 172.178 32.146 172.178Z" fill="#E6E6E6"/>
<path d="M34.4396 181.331C33.036 179.274 32.3171 176.84 32.3856 174.372C32.3856 174.269 32.3171 174.167 32.1802 174.132V173.687H29.7838V174.098C29.6468 174.098 29.5441 174.201 29.5441 174.338C29.5441 174.338 29.5441 174.338 29.5441 174.372C29.7495 176.909 29.0991 179.411 27.627 181.502C27.5585 181.639 27.4901 181.776 27.4901 181.913L27.764 190.072C27.764 190.449 28.0721 190.757 28.4486 190.757H33.8919C34.2685 190.757 34.5766 190.449 34.5766 190.072L34.6793 182.153C34.6793 181.845 34.6108 181.571 34.4396 181.331Z" fill="#E6E6E6"/>
<path d="M33.6522 184.347H28.4486V186.952H33.6522V184.347Z" fill="white"/>
<path d="M42.7586 172.178H40.4649C40.2937 172.178 40.1568 172.316 40.1568 172.487V173.481C40.1568 173.652 40.2937 173.789 40.4649 173.789H40.8414V175.298H42.382V173.789H42.7586C42.9297 173.789 43.0667 173.652 43.0667 173.481V172.487C43.0667 172.316 42.9297 172.178 42.7586 172.178Z" fill="#E6E6E6"/>
<path d="M45.0523 181.331C43.6487 179.274 42.9297 176.84 42.9982 174.372C42.9982 174.269 42.9297 174.167 42.7928 174.132V173.687H40.3964V174.098C40.2595 174.098 40.1568 174.201 40.1568 174.338C40.1568 174.338 40.1568 174.338 40.1568 174.372C40.3622 176.909 39.7117 179.411 38.2396 181.502C38.1712 181.639 38.1027 181.776 38.1027 181.913L38.3766 190.072C38.3766 190.449 38.6847 190.757 39.0613 190.757H44.5045C44.8811 190.757 45.1892 190.449 45.1892 190.072L45.2919 182.153C45.2919 181.845 45.2234 181.571 45.0523 181.331Z" fill="#E6E6E6"/>
<path d="M44.2649 184.347H39.0613V186.952H44.2649V184.347Z" fill="white"/>
<path d="M53.3712 172.178H51.0775C50.9063 172.178 50.7694 172.316 50.7694 172.487V173.481C50.7694 173.652 50.9063 173.789 51.0775 173.789H51.4541V175.298H52.9946V173.789H53.3712C53.5423 173.789 53.6793 173.652 53.6793 173.481V172.487C53.6793 172.316 53.5423 172.178 53.3712 172.178Z" fill="#E6E6E6"/>
<path d="M55.6649 181.331C54.2613 179.274 53.5423 176.84 53.6108 174.372C53.6108 174.269 53.5423 174.167 53.4054 174.132V173.687H51.009V174.098C50.8721 174.098 50.7694 174.201 50.7694 174.338C50.7694 174.338 50.7694 174.338 50.7694 174.372C50.9748 176.909 50.3243 179.411 48.8523 181.502C48.7838 181.639 48.7153 181.776 48.7153 181.913L48.9892 190.072C48.9892 190.449 49.2973 190.757 49.6739 190.757H55.1171C55.4937 190.757 55.8018 190.449 55.8018 190.072L55.9045 182.153C55.9045 181.845 55.836 181.571 55.6649 181.331Z" fill="#E6E6E6"/>
<path d="M54.8775 184.347H49.6739V186.952H54.8775V184.347Z" fill="white"/>
<path d="M84.0793 152.229H79.2865C78.9441 152.229 78.636 152.503 78.636 152.88V155.005C78.636 155.348 78.9099 155.656 79.2865 155.656H80.0739V158.81H83.2919V155.622H84.0793C84.4216 155.622 84.7297 155.348 84.7297 154.971V152.88C84.6955 152.537 84.4216 152.229 84.0793 152.229Z" fill="#E6E6E6"/>
<path d="M88.8721 171.561C85.9279 167.242 84.4216 162.101 84.5586 156.89C84.5586 156.65 84.3874 156.411 84.1477 156.376V155.451H79.0811V156.342H79.0126C78.7387 156.342 78.4991 156.582 78.4991 156.856V156.89C78.9099 162.478 77.5405 167.482 74.4595 171.904C74.2883 172.144 74.1856 172.453 74.1856 172.761L74.7333 189.969C74.7676 190.757 75.418 191.408 76.2054 191.408H87.6739C88.4955 191.408 89.1459 190.757 89.1459 189.934L89.3513 173.241C89.4198 172.693 89.2144 172.076 88.8721 171.561Z" fill="#E6E6E6"/>
<path d="M87.0577 177.286H77.0613C76.4793 177.286 76.0342 177.731 76.0342 178.314C76.0342 178.383 76.0342 178.417 76.0342 178.486L77.5405 188.323H86.2018L88.0505 178.52C88.1532 177.971 87.7766 177.423 87.2288 177.32C87.1946 177.286 87.1261 177.286 87.0577 177.286Z" fill="white"/>
<path d="M86.6811 89.2942H58.027C60.0468 78.4624 59.5676 65.3682 58.027 51.2799H86.6811C85.1748 65.3339 84.7297 78.4281 86.6811 89.2942Z" fill="#E6E6E6"/>
<path d="M72.5423 76.1657C76.3616 76.1657 79.4577 73.0656 79.4577 69.2415C79.4577 65.4174 76.3616 62.3174 72.5423 62.3174C68.7231 62.3174 65.627 65.4174 65.627 69.2415C65.627 73.0656 68.7231 76.1657 72.5423 76.1657Z" fill="white"/>
<path d="M60.4576 139.751H31.8036C33.8234 128.92 33.3441 115.825 31.8036 101.737H60.4576C58.9513 115.791 58.5063 128.885 60.4576 139.751Z" fill="#E6E6E6"/>
<path d="M46.3189 126.623C50.1381 126.623 53.2342 123.523 53.2342 119.699C53.2342 115.875 50.1381 112.775 46.3189 112.775C42.4997 112.775 39.4036 115.875 39.4036 119.699C39.4036 123.523 42.4997 126.623 46.3189 126.623Z" fill="white"/>
<path d="M102.908 91.6937H74.2541C76.2739 80.8618 75.7946 67.7676 74.2541 53.6794H102.908C101.402 67.7676 100.957 80.8618 102.908 91.6937Z" fill="#E6E6E6"/>
<path d="M88.7694 78.5652C92.5886 78.5652 95.6847 75.4651 95.6847 71.641C95.6847 67.8169 92.5886 64.7169 88.7694 64.7169C84.9502 64.7169 81.8541 67.8169 81.8541 71.641C81.8541 75.4651 84.9502 78.5652 88.7694 78.5652Z" fill="white"/>
<path d="M102.908 89.9798H74.2541C76.2739 79.1479 75.7946 66.0537 74.2541 51.9655H102.908C101.402 66.0194 100.957 79.1136 102.908 89.9798Z" fill="#E6E6E6"/>
<path d="M88.7694 76.8513C92.5886 76.8513 95.6847 73.7513 95.6847 69.9271C95.6847 66.103 92.5886 63.003 88.7694 63.003C84.9502 63.003 81.8541 66.103 81.8541 69.9271C81.8541 73.7513 84.9502 76.8513 88.7694 76.8513Z" fill="white"/>
<path d="M102.908 91.6937H74.2541C76.2739 80.8618 75.7946 67.7676 74.2541 53.6794H102.908C101.402 67.7676 100.957 80.8618 102.908 91.6937Z" fill="#E6E6E6"/>
<path d="M88.7694 78.5652C92.5886 78.5652 95.6847 75.4651 95.6847 71.641C95.6847 67.8169 92.5886 64.7169 88.7694 64.7169C84.9502 64.7169 81.8541 67.8169 81.8541 71.641C81.8541 75.4651 84.9502 78.5652 88.7694 78.5652Z" fill="white"/>
<path d="M109.481 87.2032H15.5766V97.5552H109.481V87.2032Z" fill="#E6E6E6"/>
<path d="M109.481 138.689H15.5766V149.041H109.481V138.689Z" fill="#E6E6E6"/>
<path d="M109.481 190.209H15.5766V200.561H109.481V190.209Z" fill="#E6E6E6"/>
<path d="M272.813 232.268L249.431 215.712C257.304 208.033 264.494 197.064 271.341 184.656L294.723 201.212C285.377 211.872 277.468 222.293 272.813 232.268Z" fill="#EF5052"/>
<path d="M272.813 214.649C276.632 214.649 279.728 211.549 279.728 207.725C279.728 203.901 276.632 200.801 272.813 200.801C268.993 200.801 265.897 203.901 265.897 207.725C265.897 211.549 268.993 214.649 272.813 214.649Z" fill="white"/>
<path d="M159.977 156.685H157.409C157.238 156.685 157.067 156.822 157.067 157.028V158.159C157.067 158.33 157.204 158.501 157.409 158.501H157.82V160.181H159.532V158.501H159.942C160.114 158.501 160.285 158.364 160.285 158.159V157.028C160.319 156.822 160.148 156.685 159.977 156.685Z" fill="#E6E6E6"/>
<path d="M162.544 167.002C160.969 164.706 160.182 161.964 160.25 159.153C160.25 159.016 160.148 158.913 160.045 158.879V158.399H157.341V158.879H157.306C157.169 158.879 157.032 159.016 157.032 159.153C157.032 159.153 157.032 159.153 157.032 159.187C157.272 162.032 156.519 164.877 154.876 167.208C154.773 167.345 154.739 167.517 154.739 167.688L155.047 176.875C155.047 177.286 155.423 177.629 155.834 177.629H161.962C162.407 177.629 162.75 177.286 162.75 176.84L162.852 167.928C162.818 167.585 162.715 167.277 162.544 167.002Z" fill="#EF5052"/>
<path opacity="0.2" d="M159.429 157.062C159.429 157.473 159.086 157.782 158.71 157.782C158.333 157.782 157.991 157.439 157.991 157.062" fill="black"/>
<path d="M161.346 168.785H156.177V172.247H161.346V168.785Z" fill="white"/>
<path d="M241.214 192.54H236.422C236.079 192.54 235.771 192.814 235.771 193.191V195.316C235.771 195.659 236.045 195.967 236.422 195.967H237.209V199.121H240.427V195.967H241.214C241.557 195.967 241.865 195.693 241.865 195.316V193.191C241.865 192.848 241.557 192.54 241.214 192.54Z" fill="#E6E6E6"/>
<path d="M246.041 211.872C243.097 207.553 241.591 202.412 241.728 197.201C241.728 196.961 241.557 196.721 241.317 196.687V195.762H236.25V196.653H236.182C235.908 196.653 235.668 196.893 235.668 197.167V197.201C236.079 202.789 234.71 207.793 231.629 212.215C231.458 212.455 231.355 212.764 231.355 213.072L231.903 230.28C231.937 231.068 232.587 231.719 233.375 231.719H244.843C245.665 231.719 246.315 231.068 246.315 230.245L246.521 213.552C246.555 213.004 246.384 212.386 246.041 211.872Z" fill="#EF5052"/>
<path opacity="0.2" d="M240.222 193.225C240.222 193.979 239.605 194.596 238.852 194.596C238.099 194.596 237.483 193.979 237.483 193.225" fill="black"/>
<path d="M244.227 217.597H234.231C233.649 217.597 233.204 218.042 233.204 218.625C233.204 218.694 233.204 218.728 233.204 218.796L234.71 228.634H243.371L245.22 218.831C245.323 218.282 244.946 217.734 244.398 217.631C244.33 217.597 244.261 217.597 244.227 217.597Z" fill="white"/>
<path d="M227.486 232.233H198.832C200.852 221.402 200.373 208.307 198.832 194.219H227.486C226.014 208.307 225.569 221.402 227.486 232.233Z" fill="#EF5052"/>
<path d="M213.348 219.105C217.167 219.105 220.263 216.005 220.263 212.181C220.263 208.357 217.167 205.257 213.348 205.257C209.529 205.257 206.432 208.357 206.432 212.181C206.432 216.005 209.529 219.105 213.348 219.105Z" fill="white"/>
<path d="M110.303 112.603L116.739 112.021L120.847 102.046L113.521 97.9666L110.303 112.603Z" fill="#FFB8B8"/>
<path d="M169.357 139.923C170.11 138.072 169.186 135.947 167.337 135.192C166.96 135.055 166.584 134.952 166.207 134.952L156.211 134.37L154.739 139.272L165.009 142.082C166.789 142.562 168.672 141.637 169.357 139.923Z" fill="#FFB8B8"/>
<path d="M158.607 142.151L158.505 132.964L136.321 129.434L119.238 109.827C117.389 107.701 114.274 107.29 111.946 108.833C109.378 110.547 108.659 114.009 110.337 116.579C110.508 116.854 110.714 117.128 110.953 117.368L125.058 134.747L158.607 142.151Z" fill="#4D70B5"/>
<path d="M105.339 245.499H111.193L125.708 179.857L140.737 200.149L149.501 244.059H155.047L153.883 196.927L134.301 146.573H114.993C109.721 156.136 105.578 165.974 110.303 176.155L105.339 245.499Z" fill="#2F2E41"/>
<path d="M145.906 249.475C145.667 250.264 146.112 251.121 146.899 251.395C146.968 251.429 147.036 251.429 147.105 251.429L161.414 253.966C162.578 254.171 163.742 253.486 164.085 252.355C164.427 251.258 163.948 250.092 162.955 249.578C159.805 247.967 157.101 245.602 155.081 242.723C153.506 244.196 151.76 244.059 149.877 242.962L147.892 243.202L145.906 249.475Z" fill="#2F2E41"/>
<path d="M102.634 249.475C102.395 250.264 102.84 251.121 103.627 251.395C103.696 251.429 103.764 251.429 103.832 251.429L118.142 253.966C119.306 254.171 120.47 253.486 120.813 252.355C121.155 251.258 120.676 250.092 119.683 249.578C116.533 247.967 113.829 245.602 111.809 242.723C110.234 244.196 108.488 244.059 106.605 242.962L104.62 243.202L102.634 249.475Z" fill="#2F2E41"/>
<path d="M120.984 105.713C125.503 105.713 129.166 102.045 129.166 97.5209C129.166 92.9964 125.503 89.3285 120.984 89.3285C116.465 89.3285 112.802 92.9964 112.802 97.5209C112.802 102.045 116.465 105.713 120.984 105.713Z" fill="#FFB8B8"/>
<path d="M113.692 148.732L135.02 148.15L128.755 128.405C132.658 122.167 128.721 115.894 123.175 109.655L118.793 106.742L111.775 106.159C108.728 109.415 107.085 113.734 107.153 118.191C107.29 127.72 108.968 138.072 113.692 148.732Z" fill="#4D70B5"/>
<path d="M162.715 162.032C164.119 160.627 164.119 158.33 162.715 156.89C162.441 156.616 162.133 156.376 161.757 156.205L152.822 151.714L149.535 155.622L157.888 162.272C159.326 163.472 161.414 163.335 162.715 162.032Z" fill="#FFB8B8"/>
<path d="M151.966 159.873L155.458 151.372L136.458 139.374L128.447 114.591C127.591 111.918 124.886 110.307 122.148 110.786C119.101 111.335 117.081 114.249 117.629 117.299C117.697 117.642 117.766 117.951 117.903 118.259L124.031 139.786L151.966 159.873Z" fill="#4D70B5"/>
<path d="M107.53 94.2988C107.53 97.4866 109.584 102.423 112.22 104.548C113.966 105.988 116.294 105.919 117.184 103.965C118.108 101.977 121.258 97.2467 126.838 94.2988C134.267 90.3568 124.202 83.604 117.184 84.6324C111.912 85.4208 107.53 88.9514 107.53 94.2988Z" fill="#2F2E41"/>
<path d="M112.494 89.9112C115.727 89.9112 118.348 87.2869 118.348 84.0496C118.348 80.8124 115.727 78.1881 112.494 78.1881C109.261 78.1881 106.64 80.8124 106.64 84.0496C106.64 87.2869 109.261 89.9112 112.494 89.9112Z" fill="#2F2E41"/>
<path d="M119.238 81.993C119.238 78.9423 116.876 76.4057 113.829 76.1657C113.966 76.1657 114.103 76.1315 114.274 76.1315C117.492 76.1315 120.128 78.7366 120.128 81.993C120.128 85.2494 117.526 87.8545 114.274 87.8545C114.137 87.8545 113.966 87.8545 113.829 87.8203C116.876 87.6146 119.238 85.078 119.238 81.993Z" fill="#2F2E41"/>
<path d="M121.121 100.435C121.839 100.435 122.422 99.6518 122.422 98.6864C122.422 97.7209 121.839 96.9382 121.121 96.9382C120.402 96.9382 119.82 97.7209 119.82 98.6864C119.82 99.6518 120.402 100.435 121.121 100.435Z" fill="#FFB8B8"/>
<path d="M286.814 234.736H195.786L176.512 143.522H160.045V139.443H179.832L199.106 230.657H286.814V234.736Z" fill="#3F3D56"/>
<path d="M209.103 251.429C213.943 251.429 217.867 247.5 217.867 242.654C217.867 237.808 213.943 233.879 209.103 233.879C204.262 233.879 200.339 237.808 200.339 242.654C200.339 247.5 204.262 251.429 209.103 251.429Z" fill="#3F3D56"/>
<path d="M274.524 251.429C279.365 251.429 283.288 247.5 283.288 242.654C283.288 237.808 279.365 233.879 274.524 233.879C269.684 233.879 265.76 237.808 265.76 242.654C265.76 247.5 269.684 251.429 274.524 251.429Z" fill="#3F3D56"/>
<path d="M285.137 232.816H196.573L180.962 155.485H299.823C302.151 155.485 304.034 157.37 304.034 159.701C304.034 159.907 304.034 160.147 304 160.352L289.348 229.251C288.971 231.308 287.225 232.816 285.137 232.816ZM197.532 231.651H285.137C286.643 231.651 287.91 230.554 288.115 229.08L302.768 160.181C303.041 158.536 301.912 156.959 300.234 156.719C300.063 156.685 299.926 156.685 299.755 156.685H182.332L197.532 231.651Z" fill="#3F3D56"/>
<path d="M213.793 232.576L203.557 156.205L204.721 155.999L214.957 232.371L213.793 232.576Z" fill="#3F3D56"/>
<path d="M270.69 231.994L269.526 231.788L279.488 155.999L280.618 156.171L270.69 231.994Z" fill="#3F3D56"/>
<path d="M243.577 156.102H242.413V232.473H243.577V156.102Z" fill="#3F3D56"/>
<path d="M186.908 176.549L186.905 177.714L299.981 177.988L299.984 176.823L186.908 176.549Z" fill="#3F3D56"/>
<path d="M292.02 212.703L192.672 213.383L192.68 214.548L292.028 213.868L292.02 212.703Z" fill="#3F3D56"/>
<path d="M161.791 144.379C165.346 144.379 168.227 142.814 168.227 140.883C168.227 138.952 165.346 137.386 161.791 137.386C158.236 137.386 155.355 138.952 155.355 140.883C155.355 142.814 158.236 144.379 161.791 144.379Z" fill="#3F3D56"/>
</g>
<defs>
<clipPath id="clip0_4_1547">
<rect width="304" height="254" fill="white"/>
</clipPath>
</defs>
</svg>
